<svg width="1522" height="945" viewBox="0 0 1522 945" fill="none" xmlns="http://www.w3.org/2000/svg">
<path d="M1521.8 92.3671C1493.92 27.7208 1420.72 -13.0666 1351.26 3.82297C1317.47 12.0726 1287.6 31.8334 1266.79 59.7139C1246.37 87.831 1237.61 122.757 1242.34 157.188C1246.71 190.365 1262.61 222.475 1288.4 244.16C1312.13 264.136 1345.87 274.367 1376.48 267.456C1408.22 260.215 1428.77 233.075 1430.2 201.004C1431.78 165.827 1414.3 131.718 1390.06 107.296C1364.51 81.6897 1329.2 65.402 1292.71 72.0996C1256.21 78.7972 1232.41 107.315 1226.96 143.288C1220.51 185.726 1237.24 226.086 1244.84 267.126C1251.43 303.096 1248.17 340.179 1235.39 374.442C1211.05 440.7 1154.34 496.319 1084.99 512.995C1047.05 522.119 1002.77 520.178 970.352 496.358C940.842 474.673 928.367 435.691 935.545 400.301C942.802 364.561 970.177 338.275 1005.66 330.84C1040.84 323.482 1079.02 335.266 1100.44 364.91C1120.98 393.312 1124.65 432.119 1113.4 464.889C1100.98 500.804 1069.94 527.089 1034.82 539.63C955.277 567.799 873.674 524.934 822.804 464.074C769.527 400.34 743.82 319.483 696.694 251.789C656.048 193.374 589.986 136.726 514.32 141.444C439.392 146.045 387.008 210.652 363.94 277.026C334.547 361.571 339.261 453.687 313.923 539.281C291.184 616.119 239.829 692.956 156.771 711.147C119.014 719.78 79.3802 710.891 48.9186 686.958C20.67 664.749 0.686646 630.019 4.46985 593.25C8.35022 555.2 36.5017 522.702 70.7064 507.462C111.449 489.33 160.225 495.271 199.163 515.228C261.849 547.396 301.642 617.283 301.642 687.307C301.487 769.969 242.273 836.479 176.813 879.596C140.474 903.513 101.147 922.305 61.8981 940.923C59.3566 942.126 61.5684 945.892 64.1099 944.805C140.784 908.289 221.591 869.093 270.58 796.429C291.184 765.912 304.552 730.618 305.891 693.539C306.818 659.647 299.17 626.071 283.657 595.929C250.558 530.797 180.247 484.031 105.493 493.562C69.6394 498.125 36.5016 517.383 16.557 547.92C-2.27039 576.247 -5.24475 612.262 8.67993 643.297C22.7073 674.553 50.7617 698.878 82.5607 710.875C116.319 723.63 153.725 720.057 186.572 706.177C262.238 674.184 303.757 598.763 323.042 522.508C333.945 479.468 338.834 435.342 344.558 391.39C350.572 345.089 357.925 297.779 377.385 254.915C393.236 219.971 417.604 187.648 450.276 166.972C483.778 145.774 524.788 140.057 562.805 151.286C643.34 174.582 693.784 248.159 730.996 318.241C769.081 389.954 803.635 468.034 872.626 515.83C904.503 537.922 942.472 552.715 981.624 552.948C1017.09 553.181 1053.04 541.61 1080.57 518.955C1107.09 497.347 1122.98 465.314 1124.13 431.11C1125.18 399.466 1113.59 366.58 1088.89 345.944C1064.2 325.307 1029.2 319.736 998.6 328.025C967.189 336.548 942.336 359.824 933.256 391.254C924.448 421.714 930.055 456.658 949.456 481.953C972.175 511.597 1010.84 522.935 1046.89 522.275C1116.46 520.974 1179.73 478.731 1216.77 421.326C1235.45 392.651 1247.31 360.067 1251.42 326.084C1253.38 308.879 1253.07 291.49 1250.49 274.367C1246.94 250.78 1239.7 227.969 1234.75 204.673C1226.35 165.05 1225.69 114.091 1263.26 88.5426C1299.54 63.8489 1346.68 75.361 1378.11 102.132C1407.21 127.02 1429.31 165.711 1425.55 205.12C1423.76 223.717 1414.94 241.403 1399.57 252.43C1385.31 262.661 1367.38 266.019 1350.1 264.835C1270.45 259.011 1228.33 166.176 1252.41 96.0556C1265.14 59.0927 1295.58 29.5456 1331.47 14.7527C1367.52 -0.0688025 1408.14 1.01679 1443.34 17.7423C1476.72 33.4401 1503.26 60.7407 1518.02 94.5608C1519.14 97.1427 1522.9 94.9102 1521.8 92.3671Z" fill="#FF4C0D"/>
</svg>
